<svg width="440" height="440" viewBox="0 0 440 440" fill="none" xmlns="http://www.w3.org/2000/svg">
<circle cx="220" cy="220" r="220" fill="white"/>
<path d="M342.834 227.44L353.937 80.889H353.995C354.112 78.8438 352.067 77.383 350.197 78.2595L216.909 139.848C214.689 140.9 214.922 144.172 217.26 144.873L263.598 159.19C265.293 159.716 266.052 161.819 265 163.28L250.333 184.433L193.711 266.415L139.66 344.657V229.836C139.66 204.768 119.325 184.433 94.2564 184.433H92.328C80.2906 184.433 68.7207 189.224 60.1894 197.756L2.94507 255L5 267L9 283L13.5 297L20.0001 311.162L89.8154 241.347V353.247C89.8154 378.315 110.15 398.649 135.219 398.649H137.614C149.652 398.649 161.222 393.858 169.695 385.327L306.313 189.341C306.722 188.815 307.891 189.75 308.417 190.393L338.043 228.842C339.504 230.829 342.659 229.836 342.834 227.44Z" fill="url(#paint0_linear_81_112)"/>
<defs>
<linearGradient id="paint0_linear_81_112" x1="-212.808" y1="473.802" x2="446.306" y2="24.3335" gradientUnits="userSpaceOnUse">
<stop offset="0.19774" stop-color="#34F5C5"/>
<stop offset="0.392302" stop-color="#21D0B2"/>
<stop offset="0.730133" stop-color="#1DCDFE"/>
<stop offset="0.966251" stop-color="#2F455C"/>
</linearGradient>
</defs>
</svg>
